<?xml version="1.0" encoding="UTF-8"?>
<svg version="1.1" xmlns="http://www.w3.org/2000/svg" width="600" height="600">
<path d="M0 0 C2.46732955 1.93916682 4.83460826 3.9512628 7.1875 6.02734375 C8.00605469 6.71441406 8.82460937 7.40148437 9.66796875 8.109375 C32.35160147 27.62784967 45.4522968 55.24552713 47.84375 84.92211914 C49.89361828 116.64062793 39.52350071 145.42491347 18.75 169.27734375 C0.18157927 189.07503275 -25.84990913 205.21263778 -53.8046875 206.125 C-55.23167969 206.10759766 -55.23167969 206.10759766 -56.6875 206.08984375 C-57.65429688 206.08082031 -58.62109375 206.07179688 -59.6171875 206.0625 C-60.70386719 206.04509766 -60.70386719 206.04509766 -61.8125 206.02734375 C-61.5559505 208.73771377 -61.28278951 211.4446899 -61 214.15234375 C-60.92974609 214.91289062 -60.85949219 215.6734375 -60.78710938 216.45703125 C-59.95527002 224.17650047 -57.43066115 229.20135168 -51.43359375 234.1640625 C-37.90293017 243.78273095 -22.95262907 248.67897316 -6.4375 249.58984375 C-5.70144531 249.63302734 -4.96539062 249.67621094 -4.20703125 249.72070312 C-2.40901932 249.82578174 -0.61078042 249.92696468 1.1875 250.02734375 C1.31125 249.21394531 1.435 248.40054687 1.5625 247.5625 C4.17686263 233.03644766 10.06354871 219.89958709 20.1875 209.02734375 C20.991875 208.16109375 21.79625 207.29484375 22.625 206.40234375 C23.470625 205.61859375 24.31625 204.83484375 25.1875 204.02734375 C25.785625 203.43566406 26.38375 202.84398437 27 202.234375 C43.01060183 187.01841701 63.20037457 181.41432838 84.87890625 181.7578125 C105.23339157 182.50298121 125.06384355 192.06170257 138.96875 206.91015625 C150.03385405 219.67502026 156.79767343 233.29855774 159.1875 250.02734375 C180.4725 249.53234375 180.4725 249.53234375 202.1875 249.02734375 C203.5075 244.40734375 204.8275 239.78734375 206.1875 235.02734375 C213.84709552 213.79932189 228.66567837 198.18565937 248.9609375 188.37890625 C270.48476543 179.36287179 293.50728234 179.76375272 315.02734375 188.5234375 C334.94725106 198.00324506 350.03972296 214.94810906 357.47265625 235.59765625 C364.00150321 256.14363342 362.94183239 278.04424065 353.4375 297.46484375 C350.07774173 303.94935737 346.13572861 309.63443685 341.1875 315.02734375 C340.52363281 315.78273438 339.85976563 316.538125 339.17578125 317.31640625 C325.98757726 331.50408596 306.58881681 340.45459048 287.21484375 341.36328125 C264.84017807 341.76387855 245.00070403 336.45419587 228.1875 321.02734375 C227.43210937 320.36347656 226.67671875 319.69960938 225.8984375 319.015625 C213.06700912 307.08812886 205.34563983 291.29246242 203.1875 274.02734375 C188.6675 274.02734375 174.1475 274.02734375 159.1875 274.02734375 C158.5275 277.32734375 157.8675 280.62734375 157.1875 284.02734375 C150.69509729 304.91594378 137.07423184 321.85210975 117.8125 332.203125 C99.01625986 341.88801854 77.41028331 344.34495675 57.00390625 338.421875 C46.36869143 334.72782762 36.69257139 329.41187658 28.1875 322.02734375 C27.176875 321.26421875 26.16625 320.50109375 25.125 319.71484375 C12.24124481 307.92757836 4.3634809 292.06215039 1.1875 275.02734375 C0.06214844 274.98996094 -1.06320313 274.95257813 -2.22265625 274.9140625 C-23.86315579 274.05081408 -42.63763412 269.22917309 -60.49072266 256.41210938 C-61.42665756 255.74097107 -61.42665756 255.74097107 -62.38150024 255.05627441 C-62.85373016 254.71672729 -63.32596008 254.37718018 -63.8125 254.02734375 C-63.75170893 269.02330463 -63.67403083 284.01910935 -63.57678509 299.01487827 C-63.53200688 305.97922301 -63.49255199 312.94351867 -63.46606445 319.90795898 C-63.4404514 326.63839623 -63.3994278 333.36858358 -63.34931374 340.0988903 C-63.33272473 342.65705546 -63.32116117 345.21525867 -63.31488609 347.77346992 C-63.25111561 371.39747095 -62.06582389 391.98547672 -44.8125 410.02734375 C-39.39202544 415.30131899 -33.3855577 418.99899794 -26.6875 422.40234375 C-26.03072266 422.73637207 -25.37394531 423.07040039 -24.69726562 423.41455078 C-18.11554302 426.60842866 -11.64192342 428.15261033 -4.3125 428.65234375 C-3.2709375 428.72710937 -2.229375 428.801875 -1.15625 428.87890625 C-0.3828125 428.92789062 0.390625 428.976875 1.1875 429.02734375 C1.31125 428.21394531 1.435 427.40054687 1.5625 426.5625 C4.17686263 412.03644766 10.06354871 398.89958709 20.1875 388.02734375 C20.991875 387.16109375 21.79625 386.29484375 22.625 385.40234375 C23.470625 384.61859375 24.31625 383.83484375 25.1875 383.02734375 C25.785625 382.43566406 26.38375 381.84398437 27 381.234375 C43.01060183 366.01841701 63.20037457 360.41432838 84.87890625 360.7578125 C106.19672611 361.53824847 125.97691082 371.9425492 140.5 387.33984375 C154.57227307 404.2325091 162.12511979 425.99687215 160.1875 448.02734375 C157.04417906 470.98089668 146.64883849 490.15727461 128.48828125 504.671875 C110.38716512 518.01097993 89.01349406 522.3101606 66.859375 519.75927734 C45.41919171 516.25043253 26.83565426 503.29782348 14.1875 486.02734375 C7.37213493 476.31469793 3.56280863 465.57542121 1.1875 454.02734375 C-0.71708984 453.89779297 -0.71708984 453.89779297 -2.66015625 453.765625 C-13.76223966 452.90328519 -23.45235565 451.31512604 -33.8125 447.02734375 C-35.34583984 446.39699219 -35.34583984 446.39699219 -36.91015625 445.75390625 C-57.70790626 436.272982 -72.35116865 418.52778279 -81.625 398.02734375 C-81.90303467 397.4238208 -82.18106934 396.82029785 -82.4675293 396.19848633 C-87.58106311 384.34785226 -88.24242434 372.36520539 -88.15307617 359.6706543 C-88.15222805 357.9643251 -88.15270865 356.25799482 -88.15440369 354.55166626 C-88.15525785 349.95950922 -88.13772686 345.36759143 -88.11668181 340.77548957 C-88.09781753 335.96157049 -88.09615694 331.1476448 -88.09260559 326.33369446 C-88.0833136 317.235713 -88.05873868 308.13784081 -88.02855712 299.03990728 C-87.99492409 288.67464313 -87.9785048 278.30937352 -87.96347082 267.94406831 C-87.93218634 246.63843268 -87.87948169 225.33289512 -87.8125 204.02734375 C-89.08237762 203.87531998 -90.35225525 203.7232962 -91.66061401 203.56666565 C-96.37612162 203.00214727 -100.50296084 201.63138172 -104.9375 199.96484375 C-105.76789795 199.65321289 -106.5982959 199.34158203 -107.45385742 199.02050781 C-136.68368611 187.70137562 -157.96896542 165.26750094 -170.8125 137.02734375 C-172.88512595 132.13822105 -174.45341512 127.15982283 -175.8125 122.02734375 C-176.28816406 120.27744141 -176.28816406 120.27744141 -176.7734375 118.4921875 C-183.63515105 88.55874905 -177.69548253 57.99115805 -161.8125 32.02734375 C-158.97635192 27.88574845 -155.96839384 23.92967509 -152.8125 20.02734375 C-152.16410156 19.22425781 -151.51570313 18.42117187 -150.84765625 17.59375 C-113.98661652 -25.90076927 -45.97529686 -32.24656238 0 0 Z M-133.80078125 34.28515625 C-151.13089816 54.80758534 -156.35561989 78.60033807 -154.8125 105.02734375 C-152.99984556 121.10764425 -146.10189151 136.64160892 -135.8125 149.02734375 C-135.11253906 149.878125 -134.41257812 150.72890625 -133.69140625 151.60546875 C-117.99492091 169.84808629 -96.81705057 180.68324762 -72.8671875 182.8046875 C-49.47240062 184.33682555 -25.97790794 177.55065755 -8.0703125 162.1015625 C-7.32523438 161.41707031 -6.58015625 160.73257813 -5.8125 160.02734375 C-4.57113281 158.92326172 -4.57113281 158.92326172 -3.3046875 157.796875 C13.68601795 141.8713361 23.26794436 119.06802389 24.21484375 95.9296875 C24.03157391 69.77446253 14.67607275 47.40685476 -3.125 28.27734375 C-21.87128495 10.58225235 -45.48870936 3.43906862 -70.75390625 3.74609375 C-95.13509511 4.51461034 -117.65744515 16.15272095 -133.80078125 34.28515625 Z M38.1875 224.02734375 C27.87401581 237.29964913 23.24516559 251.24570299 24.40625 268.2265625 C26.40441183 282.92457977 33.66780553 296.15719427 45.19921875 305.5390625 C58.54080372 315.5255927 72.76620352 318.30389868 89.1875 317.02734375 C103.58480875 314.91161021 116.2791584 306.85765587 125.1953125 295.4609375 C130.79887318 287.12837 135.62351423 277.17908768 136.1875 267.02734375 C136.2803125 265.88845703 136.2803125 265.88845703 136.375 264.7265625 C137.09182225 249.60609306 131.70213762 235.32722384 122.0625 223.83984375 C112.09101848 213.33387746 99.18196493 206.65353452 84.62109375 205.82421875 C66.90413119 205.61639514 50.35479834 210.20797188 38.1875 224.02734375 Z M239.4453125 224.28515625 C228.18418445 237.96216645 225.07941206 252.74527588 226.1875 270.02734375 C228.40419793 285.11216104 237.04314645 297.27816209 248.5625 306.83984375 C258.18961034 313.96356938 269.04175476 317.42995328 280.9375 317.33984375 C281.72390869 317.3342041 282.51031738 317.32856445 283.32055664 317.32275391 C299.53112345 316.98776317 311.95233409 310.56979624 323.1875 299.02734375 C334.32951576 286.8428002 337.82971506 273.32829232 337.43359375 257.1796875 C336.71427134 241.34385838 328.36779358 228.54239866 317.03125 218.02734375 C305.09520293 207.99414477 290.49193138 205.03916721 275.33740234 205.83642578 C261.26877562 207.08576329 249.01060395 214.16624665 239.4453125 224.28515625 Z M38.1875 403.02734375 C27.87401581 416.29964913 23.24516559 430.24570299 24.40625 447.2265625 C26.40441183 461.92457977 33.66780553 475.15719427 45.19921875 484.5390625 C58.50945679 494.50212869 72.78902815 497.3607835 89.1875 496.02734375 C93.74998063 495.14551976 97.89440024 493.78995788 102.1875 492.02734375 C103.05632812 491.68832031 103.92515625 491.34929687 104.8203125 491 C118.75281596 484.8635839 127.51203425 473.04312954 133.0625 459.27734375 C134.65802843 454.83078912 135.92387457 450.7726015 136.1875 446.02734375 C136.2803125 444.88845703 136.2803125 444.88845703 136.375 443.7265625 C137.09182225 428.60609306 131.70213762 414.32722384 122.0625 402.83984375 C112.09101848 392.33387746 99.18196493 385.65353452 84.62109375 384.82421875 C66.90413119 384.61639514 50.35479834 389.20797188 38.1875 403.02734375 Z " fill="#5082C1" transform="translate(208.8125,49.97265625)"/>
<path d="M0 0 C16.62191466 13.66336829 27.47914231 32.3031618 30.35351562 53.72216797 C32.54902926 77.39225489 25.52586337 98.43139302 10.35351562 116.72216797 C-1.90446759 131.33539687 -22.1698616 141.26883185 -41.09326172 142.93798828 C-63.07088227 144.11543644 -84.34932775 138.50728325 -101.30004883 123.91699219 C-114.51951691 112.00411167 -124.44550803 96.43423707 -127.64648438 78.72216797 C-127.64648438 77.40216797 -127.64648438 76.08216797 -127.64648438 74.72216797 C-128.81566406 74.78017578 -129.98484375 74.83818359 -131.18945312 74.89794922 C-132.73759017 74.94486246 -134.28577055 74.99036095 -135.83398438 75.03466797 C-136.60291016 75.0765625 -137.37183594 75.11845703 -138.1640625 75.16162109 C-142.51135011 75.25491053 -144.11461158 75.14836146 -147.63476562 72.32763672 C-151.1061264 67.83171898 -151.19473924 64.28166471 -150.64648438 58.72216797 C-149.02248253 55.08749718 -147.98535393 53.94808101 -144.64648438 51.72216797 C-142.74536133 51.49511719 -142.74536133 51.49511719 -140.63476562 51.52685547 C-139.4987793 51.53652344 -139.4987793 51.53652344 -138.33984375 51.54638672 C-137.16131836 51.57152344 -137.16131836 51.57152344 -135.95898438 51.59716797 C-135.16169922 51.60619141 -134.36441406 51.61521484 -133.54296875 51.62451172 C-131.57734537 51.64805212 -129.61187663 51.6839225 -127.64648438 51.72216797 C-127.58460938 50.50529297 -127.52273438 49.28841797 -127.45898438 48.03466797 C-125.37964532 29.63829326 -113.06016725 12.66835388 -99.44726562 0.85498047 C-70.28191321 -21.35461844 -29.46031115 -22.86406711 0 0 Z M-92.65820312 27.91748047 C-103.53560592 41.08362094 -106.05090602 56.16052572 -104.64648438 72.72216797 C-103.80077055 77.32073687 -102.47970222 81.42736516 -100.64648438 85.72216797 C-100.2571875 86.65158203 -99.86789062 87.58099609 -99.46679688 88.53857422 C-92.75597703 102.49628532 -80.89148211 111.40888648 -66.64648438 116.72216797 C-53.81108965 120.94304126 -38.96562319 119.98053863 -26.64648438 114.72216797 C-25.25236328 114.13822266 -25.25236328 114.13822266 -23.83007812 113.54248047 C-9.87236702 106.83166062 -0.95976587 94.9671657 4.35351562 80.72216797 C9.21170339 65.94874236 7.03115439 49.74110821 0.16601562 36.03466797 C-7.96501709 22.48294677 -20.36182797 13.05839937 -35.41210938 8.60888672 C-57.51843519 3.36159652 -77.70989818 11.60496129 -92.65820312 27.91748047 Z " fill="#88B5DF" transform="translate(539.646484375,427.27783203125)"/>
<path d="M0 0 C3.84479531 2.14842923 7.54679796 4.49240265 11.25 6.875 C12.28415039 7.53121338 13.31830078 8.18742676 14.38378906 8.86352539 C16.53028027 10.22687709 18.67447811 11.593846 20.81640625 12.96435547 C23.88207722 14.92459815 26.95513107 16.87261034 30.03125 18.81640625 C34.59317522 21.70124352 39.14307981 24.60416388 43.68554688 27.51953125 C45.72688887 28.82530107 47.77585427 30.11776935 49.828125 31.40625 C57.82546903 36.52770184 63.93335988 41.2518514 66.5859375 50.6796875 C67.66698789 56.73764909 66.69492734 61.37428375 63.5 66.625 C57.56094641 74.58157427 48.7751104 79.6072281 40.4375 84.75 C39.43114502 85.37471191 38.42479004 85.99942383 37.38793945 86.64306641 C28.20929549 92.31131553 18.95592064 97.85509995 9.6875 103.375 C8.62122879 104.01133362 8.62122879 104.01133362 7.53341675 104.66052246 C5.5073462 105.86822724 3.47878154 107.07161284 1.44921875 108.2734375 C0.84088196 108.63627838 0.23254517 108.99911926 -0.39422607 109.37295532 C-7.20572542 113.38921662 -13.1814327 113.81424133 -21 113 C-26.62488849 110.92531935 -30.72423961 106.96043716 -34 102 C-37.86694453 93.3658002 -37.43878467 84.18005675 -37.3984375 74.93359375 C-37.40046284 73.28792696 -37.4033781 71.64226104 -37.40713501 69.99659729 C-37.41153548 66.56315487 -37.40520048 63.12994804 -37.39111328 59.6965332 C-37.37400909 55.31663767 -37.38388472 50.93729331 -37.40183067 46.55741787 C-37.41271888 43.16429052 -37.40919942 39.77129189 -37.4014473 36.37816048 C-37.39945988 34.76397701 -37.40185272 33.14978148 -37.40888596 31.53561211 C-37.44563159 20.7363874 -37.34325382 10.73251805 -30 2 C-19.76944257 -5.64185363 -11.27839582 -5.34935365 0 0 Z M-13 20 C-13 42.44 -13 64.88 -13 88 C-8.44155371 87.08831074 -6.40302604 86.2690262 -2.59765625 83.89453125 C-1.55206543 83.24709961 -0.50647461 82.59966797 0.57080078 81.93261719 C1.68181152 81.23297852 2.79282227 80.53333984 3.9375 79.8125 C5.09074135 79.09108479 6.24422724 78.37006038 7.39794922 77.64941406 C9.76345708 76.17020155 12.12579372 74.68606543 14.48681641 73.19970703 C17.84194311 71.09205712 21.22184382 69.02646105 24.60546875 66.96484375 C26.61235947 65.72717896 28.61888819 64.48892693 30.625 63.25 C32.04607056 62.39305542 32.04607056 62.39305542 33.49584961 61.51879883 C34.35573486 60.98150146 35.21562012 60.4442041 36.1015625 59.890625 C36.85775879 59.42688477 37.61395508 58.96314453 38.39306641 58.48535156 C38.92335449 57.99518555 39.45364258 57.50501953 40 57 C40 55.68 40 54.36 40 53 C38.25897011 51.33482564 38.25897011 51.33482564 35.85546875 49.96875 C34.96005371 49.41131104 34.06463867 48.85387207 33.14208984 48.27954102 C32.1670752 47.69229248 31.19206055 47.10504395 30.1875 46.5 C28.16272021 45.24876297 26.13798136 43.9974597 24.11328125 42.74609375 C23.08799316 42.11944824 22.06270508 41.49280273 21.00634766 40.84716797 C16.59608741 38.13740437 12.23804934 35.3473677 7.875 32.5625 C1.01543435 28.18467525 -5.96082577 24.10618497 -13 20 Z " fill="#5182C1" transform="translate(135,89)"/>
<path d="M0 0 C2.70552388 2.19823815 4.44778333 3.89556667 6 7 C6.51348516 13.16182193 5.79347282 16.06581402 2 21 C-0.49613187 23.81617231 -3.12072414 26.4957436 -5.765625 29.171875 C-6.51785339 29.93550354 -7.27008179 30.69913208 -8.04510498 31.48590088 C-9.63256138 33.09218266 -11.22289317 34.69562723 -12.81591797 36.29638672 C-15.24223674 38.74217445 -17.64638672 41.20846247 -20.05078125 43.67578125 C-21.60023753 45.23829418 -23.15097698 46.79953592 -24.703125 48.359375 C-25.41486877 49.09581238 -26.12661255 49.83224976 -26.85992432 50.59100342 C-31.40083923 55.09225736 -34.60389192 57.17838061 -41 58 C-48.36740876 56.29982875 -53.16601692 50.56890643 -58.375 45.375 C-59.74591797 44.07755859 -59.74591797 44.07755859 -61.14453125 42.75390625 C-65.86903334 38.07152454 -69.04436185 34.71543558 -69.24169922 27.88476562 C-68.69736772 23.64007959 -66.15492939 20.69576126 -63 18 C-59.04638971 16.83020519 -55.29767329 16.49359091 -51.4375 18 C-47.88224734 20.91713039 -44.40859166 23.912814 -41 27 C-37.03096419 25.4086413 -34.41673127 22.64016617 -31.5 19.625 C-30.98244141 19.09986816 -30.46488281 18.57473633 -29.93164062 18.03369141 C-28.28284859 16.36053544 -26.64067484 14.68111401 -25 13 C-22.83913474 10.78587397 -20.67170824 8.57848603 -18.5 6.375 C-17.76233398 5.61243896 -17.76233398 5.61243896 -17.00976562 4.83447266 C-11.55659861 -0.69579086 -7.52012492 -2.11796745 0 0 Z " fill="#5183C1" transform="translate(520,285)"/>
<path d="M0 0 C3.10354599 2.06903066 4.5785371 3.54595298 5.625 7.15625 C6.44905598 12.30659989 5.9029947 14.59433118 3 19 C1.81046063 20.35740742 0.57232561 21.67341878 -0.70532227 22.94824219 C-1.80645103 24.0539859 -1.80645103 24.0539859 -2.92982483 25.18206787 C-3.7173967 25.96245422 -4.50496857 26.74284058 -5.31640625 27.546875 C-6.12867172 28.35868225 -6.94093719 29.1704895 -7.77781677 30.00689697 C-9.49103093 31.71709624 -11.20666871 33.42487061 -12.92456055 35.13037109 C-15.56162632 37.74913238 -18.19055432 40.37585563 -20.81835938 43.00390625 C-22.4839029 44.66453613 -24.14990282 46.32470842 -25.81640625 47.984375 C-26.60600235 48.77285828 -27.39559845 49.56134155 -28.2091217 50.37371826 C-28.94005539 51.09827209 -29.67098907 51.82282593 -30.42407227 52.56933594 C-31.38978905 53.52933502 -31.38978905 53.52933502 -32.37501526 54.50872803 C-35.51801122 57.39310083 -38.43737849 57.52426293 -42.5703125 57.46484375 C-47.18943337 56.58112127 -49.85161518 53.29286137 -53 50 C-53.76699219 49.24332031 -54.53398437 48.48664063 -55.32421875 47.70703125 C-57.57007983 45.49086751 -59.7859474 43.24785493 -62 41 C-62.97825709 40.0407382 -63.95723005 39.08220477 -64.9375 38.125 C-67.9149769 35.05729652 -68.94977443 33.51062664 -69.375 29.1875 C-69.26300343 24.84363303 -67.84880929 22.32361084 -65 19 C-62.1099656 16.72925868 -58.80869122 16.40836558 -55.16015625 16.4765625 C-50.27025394 17.66145745 -46.63247002 22.02294528 -43.51953125 25.79296875 C-43.01808594 26.19128906 -42.51664062 26.58960938 -42 27 C-37.44893296 26.36182725 -35.08062376 23.42660998 -32.02734375 20.25 C-31.46302139 19.67668945 -30.89869904 19.10337891 -30.317276 18.51269531 C-28.51671043 16.68212577 -26.72637473 14.84199059 -24.9375 13 C-23.1442079 11.1589028 -21.34876368 9.32012582 -19.54701233 7.48730469 C-18.4266518 6.34716679 -17.3112582 5.20212236 -16.20140076 4.05175781 C-11.01431244 -1.23586325 -7.01195912 -1.74683894 0 0 Z " fill="#4F81C0" transform="translate(318,285)"/>
<path d="M0 0 C3.47794735 1.73897368 5.42256446 3.00261134 7.375 6.375 C8.50657833 11.127629 8.60984796 13.86742522 6.25 18.25 C3.05882353 22.1503268 3.05882353 22.1503268 0 23 C-4.8006511 23.46457914 -7.04181765 23.47909117 -11.375 21.3125 C-14.22019739 18.80601659 -15.24543686 17.68897534 -16 14 C-16.15214132 9.32165455 -15.60075474 6.72398648 -12.5625 3.0625 C-8.4982153 -0.20875354 -5.13568884 -0.68730408 0 0 Z " fill="#8BB7E0" transform="translate(315,479)"/>
<path d="M0 0 C3.89397273 1.82811772 5.76222737 4.48641113 7.5625 8.375 C8.1123503 12.93090253 7.30449923 15.06004971 5 19 C2.78060129 21.54578088 1.22106078 22.76075334 -2.11328125 23.4140625 C-6.35343876 23.68486248 -9.15199871 23.3437384 -12.5 20.625 C-16.13542732 16.80780131 -16.39236502 14.44157848 -16.359375 9.328125 C-15.75455722 5.40995764 -13.83123243 3.69641184 -11 1 C-7.5032405 -0.74837975 -3.81542508 -0.55788568 0 0 Z " fill="#8AB6E0" transform="translate(271,479)"/>
<path d="M0 0 C0.66 0.33 1.32 0.66 2 1 C-2.95 5.95 -7.9 10.9 -13 16 C-13.66 15.67 -14.32 15.34 -15 15 C-10.39863498 9.46398272 -5.53601728 4.60136502 0 0 Z " fill="#799FCF" transform="translate(72,54)"/>
<path d="M0 0 C0.66 0.33 1.32 0.66 2 1 C-1.96 4.96 -5.92 8.92 -10 13 C-10.66 12.67 -11.32 12.34 -12 12 C-8.57833482 7.29521038 -4.42094803 3.72346836 0 0 Z " fill="#779ECE" transform="translate(240,427)"/>
<path d="M0 0 C0.66 0.33 1.32 0.66 2 1 C-1.96 4.96 -5.92 8.92 -10 13 C-10.66 12.67 -11.32 12.34 -12 12 C-8.57833482 7.29521038 -4.42094803 3.72346836 0 0 Z " fill="#779ECE" transform="translate(240,248)"/>
<path d="M0 0 C0.66 0.33 1.32 0.66 2 1 C-0.64 3.64 -3.28 6.28 -6 9 C-6.33 8.34 -6.66 7.68 -7 7 C-2.25 1.125 -2.25 1.125 0 0 Z " fill="#7EA3D1" transform="translate(109,88)"/>
<path d="M0 0 C0.8971875 0.309375 0.8971875 0.309375 1.8125 0.625 C0.69875 1.2746875 0.69875 1.2746875 -0.4375 1.9375 C-2.80583926 3.39079909 -4.99674065 4.92107606 -7.1875 6.625 C-4.6484375 -0.796875 -4.6484375 -0.796875 0 0 Z " fill="#9FC3E5" transform="translate(397.1875,479.375)"/>
</svg>
