<?xml version="1.0" encoding="UTF-8"?>
<svg version="1.1" xmlns="http://www.w3.org/2000/svg" width="474" height="466">
<path d="M0 0 C1.55329514 0.00456207 1.55329514 0.00456207 3.13796997 0.00921631 C18.780981 0.07713294 33.65464157 0.87452383 48.9375 4.4375 C50.89450479 4.85429091 52.85153672 5.27095444 54.80859375 5.6875 C76.02068489 10.42010563 96.91958288 17.86516387 115.9375 28.4375 C117.04931641 29.04198975 117.04931641 29.04198975 118.18359375 29.65869141 C133.89871662 38.23556163 147.83387226 48.23105758 160.9375 60.4375 C162.32894666 61.65088219 163.72458639 62.85947803 165.125 64.0625 C181.31116756 78.20101985 194.9186225 95.91587265 205.75195312 114.41455078 C206.54916889 115.77487405 207.35534114 117.12998395 208.16992188 118.47998047 C222.85882929 142.86792074 231.57972517 170.07053294 236.49609375 198.00366211 C236.79061339 199.62759259 237.11631653 201.24617167 237.47265625 202.85766602 C239.69712007 213.84295656 239.42350372 225.08910072 239.4375 236.25 C239.43951416 237.36287384 239.44152832 238.47574768 239.44360352 239.62234497 C239.42074643 258.33272082 237.83417993 275.33893616 232.9375 293.4375 C232.63779297 294.60168457 232.33808594 295.76586914 232.02929688 296.96533203 C223.53444579 329.64165148 208.86136491 360.01742612 187.06640625 385.90625 C184.8843064 388.5007467 182.78362848 391.14826193 180.6875 393.8125 C177.94823206 397.24607744 175.13350682 400.4142503 171.9375 403.4375 C171.050625 404.365625 170.16375 405.29375 169.25 406.25 C166.9375 408.4375 166.9375 408.4375 164.9375 408.4375 C164.6075 409.4275 164.2775 410.4175 163.9375 411.4375 C161.890625 413.34765625 161.890625 413.34765625 159.1875 415.5 C158.1871875 416.29664063 157.186875 417.09328125 156.15625 417.9140625 C155.0833764 418.75526327 154.01045953 419.59640884 152.9375 420.4375 C151.9165625 421.24960937 150.895625 422.06171875 149.84375 422.8984375 C129.2752392 439.12474279 106.88500394 452.12166535 81.9375 460.4375 C80.71229736 463.44597418 80.71229736 463.44597418 79.9375 466.4375 C79.2775 466.1075 78.6175 465.7775 77.9375 465.4375 C78.18001495 464.41046715 78.18001495 464.41046715 78.4274292 463.36268616 C79.00147552 460.07060913 79.07955476 456.97693775 79.09863281 453.63452148 C79.10359772 452.97031693 79.10856262 452.30611237 79.11367798 451.6217804 C79.12822651 449.43404074 79.13509162 447.24637375 79.140625 445.05859375 C79.14345238 444.30587755 79.14627975 443.55316135 79.14919281 442.77763557 C79.16416088 438.78917213 79.17340361 434.8007446 79.17773438 430.81225586 C79.18319562 426.72289517 79.20718038 422.63387138 79.23570633 418.54461575 C79.25447941 415.37442621 79.25954618 412.20431517 79.26107025 409.03407478 C79.26406761 407.52841425 79.27199549 406.0227541 79.28525543 404.51714897 C79.35959478 395.42237071 78.66267867 387.16646857 75.9375 378.4375 C75.42509766 376.72820312 75.42509766 376.72820312 74.90234375 374.984375 C68.70923854 358.12405817 58.69866767 343.48557774 42.9375 334.4375 C42.9375 334.1075 42.9375 333.7775 42.9375 333.4375 C43.56503174 333.34251221 44.19256348 333.24752441 44.83911133 333.1496582 C75.02593014 328.51674175 106.69652918 321.79066633 129.9375 300.4375 C131.10152344 299.37595703 131.10152344 299.37595703 132.2890625 298.29296875 C148.26291747 283.04034134 157.37408037 262.36107385 158.17578125 240.3203125 C158.65759471 215.07985715 152.16346595 192.8238987 135.50390625 173.42578125 C133.9375 171.4375 133.9375 171.4375 132.9375 168.4375 C133.26708984 166.22021484 133.26708984 166.22021484 133.8984375 163.6484375 C134.12273437 162.70613281 134.34703125 161.76382813 134.578125 160.79296875 C134.82046875 159.80941406 135.0628125 158.82585937 135.3125 157.8125 C139.40545837 141.05835721 141.52465376 123.12544609 135.9375 106.4375 C135.70546875 105.73496094 135.4734375 105.03242187 135.234375 104.30859375 C134.43427053 102.32899977 134.43427053 102.32899977 131.9375 100.4375 C117.7698922 97.20583764 100.81216159 105.39697069 88.9375 112.4375 C82.77014106 116.38611396 77.37482145 120.47734252 72.86328125 126.28515625 C68.177528 129.08900455 60.499669 125.91446542 55.47949219 124.67260742 C25.05913696 117.1763571 -11.10962435 115.82331904 -40.75 127.625 C-43.00390625 128.34765625 -43.00390625 128.34765625 -45.0625 128.4375 C-48.33311854 126.67075466 -50.58114673 124.16800555 -53.0625 121.4375 C-64.88046969 109.80094651 -82.33041183 100.86824304 -99.17578125 100.33984375 C-100.75939453 100.35724609 -100.75939453 100.35724609 -102.375 100.375 C-103.44363281 100.38402344 -104.51226562 100.39304687 -105.61328125 100.40234375 C-106.42152344 100.41394531 -107.22976562 100.42554687 -108.0625 100.4375 C-119.20980865 116.966268 -115.53645483 138.98104072 -112.0625 157.4375 C-111.4457405 160.12010441 -110.76045538 162.77417236 -110.0625 165.4375 C-109.5 168.4375 -109.5 168.4375 -110.0625 171.4375 C-111.56805228 173.39001312 -113.24178451 175.13244667 -114.9296875 176.9296875 C-130.97326575 195.79411468 -136.63526274 220.2094645 -135.0625 244.4375 C-133.00434477 266.50549778 -121.96776199 288.01082905 -105.0625 302.4375 C-96.04636916 309.44155645 -86.43350159 314.7296614 -76.0625 319.4375 C-75.44648926 319.71722656 -74.83047852 319.99695313 -74.19580078 320.28515625 C-56.62112516 328.10661899 -37.95455221 331.43281505 -19.0625 334.4375 C-19.0625 335.0975 -19.0625 335.7575 -19.0625 336.4375 C-20.56640625 337.515625 -20.56640625 337.515625 -22.625 338.6875 C-29.53206531 342.90915638 -34.28236764 347.40452568 -39.0625 354 C-39.49852539 354.60158936 -39.93455078 355.20317871 -40.38378906 355.82299805 C-42.49553957 358.84222838 -44.29207447 361.7553443 -45.6953125 365.16796875 C-49.32064421 373.71881657 -49.32064421 373.71881657 -54.1015625 375.69140625 C-58.47337134 376.34947853 -62.65017878 376.4375 -67.0625 376.4375 C-69.29434903 376.49714249 -71.52611718 376.5598593 -73.7578125 376.625 C-76.15093396 376.67245151 -78.54417743 376.71409691 -80.9375 376.75 C-82.07799805 376.76844971 -83.21849609 376.78689941 -84.39355469 376.8059082 C-93.68473829 376.79168286 -102.36103789 375.91455666 -109.35546875 369.296875 C-112.81614752 365.52734847 -115.91188524 361.46565543 -119.0625 357.4375 C-126.51655059 347.98320103 -136.60233044 338.91814172 -149.0625 337.4375 C-152.0908601 338.0551417 -152.0908601 338.0551417 -154.0625 339.4375 C-153.56033181 343.52788815 -151.6246085 344.91873162 -148.5 347.4375 C-138.15671732 356.59071749 -133.79372084 366.8456069 -129.29467773 379.63305664 C-124.79599222 392.40757684 -120.32531507 402.72113645 -108.0625 409.4375 C-97.32295453 414.05391645 -86.73951922 414.09458992 -75.25 414.1875 C-73.47848733 414.21572481 -71.70700107 414.24566106 -69.93554688 414.27734375 C-65.6445798 414.35042685 -61.35392339 414.40046919 -57.0625 414.4375 C-57.0531543 415.72849609 -57.04380859 417.01949219 -57.03417969 418.34960938 C-56.99413439 423.16570816 -56.92833515 427.98117791 -56.85498047 432.796875 C-56.82685501 434.87621952 -56.80559879 436.95566929 -56.79150391 439.03515625 C-56.76995762 442.03439892 -56.72324724 445.03238745 -56.671875 448.03125 C-56.67003204 449.41298401 -56.67003204 449.41298401 -56.66815186 450.82263184 C-56.52856419 457.05431588 -55.21775654 461.05047663 -52.0625 466.4375 C-53.72828767 466.52017696 -55.39534036 466.57743159 -57.0625 466.625 C-57.990625 466.65980469 -58.91875 466.69460938 -59.875 466.73046875 C-63.93865375 466.35697116 -67.32786636 464.97321179 -71.0625 463.4375 C-73.02187884 462.67772341 -74.98153806 461.91866965 -76.94140625 461.16015625 C-105.75118504 449.77536814 -130.83988804 435.64546294 -154.53857422 415.68652344 C-155.81909622 414.63699595 -157.15619485 413.65703935 -158.50390625 412.6953125 C-159.01824219 412.28023438 -159.53257812 411.86515625 -160.0625 411.4375 C-160.0625 410.7775 -160.0625 410.1175 -160.0625 409.4375 C-160.9596875 409.0353125 -160.9596875 409.0353125 -161.875 408.625 C-164.06097854 407.43832594 -165.47582594 406.34150887 -167.0625 404.4375 C-167.0625 403.7775 -167.0625 403.1175 -167.0625 402.4375 C-167.701875 402.169375 -168.34125 401.90125 -169 401.625 C-171.0625 400.4375 -171.0625 400.4375 -172.0625 397.4375 C-173.0525 397.1075 -174.0425 396.7775 -175.0625 396.4375 C-178.29979253 392.97268691 -181.14640768 389.17417792 -184.0625 385.4375 C-185.17044922 384.03371094 -185.17044922 384.03371094 -186.30078125 382.6015625 C-192.49668117 374.56780239 -197.90286119 366.15908538 -203.0625 357.4375 C-203.54122559 356.63586426 -204.01995117 355.83422852 -204.51318359 355.00830078 C-217.30704008 333.36004509 -225.73476046 309.97713576 -231.0625 285.4375 C-231.37574219 284.0767334 -231.37574219 284.0767334 -231.6953125 282.68847656 C-239.03223659 249.70714531 -237.54812986 212.99385754 -229.0625 180.4375 C-228.66175769 178.7596634 -228.26308762 177.0813295 -227.8671875 175.40234375 C-220.51141548 145.56307385 -206.4351088 117.32590268 -187.328125 93.30078125 C-184.85770073 90.1786761 -182.52161923 86.97724659 -180.21875 83.73046875 C-179.64640625 83.09044922 -179.64640625 83.09044922 -179.0625 82.4375 C-178.4025 82.4375 -177.7425 82.4375 -177.0625 82.4375 C-176.794375 81.85484375 -176.52625 81.2721875 -176.25 80.671875 C-175.04769009 78.40963399 -173.72424087 76.63173682 -172.0625 74.6875 C-171.546875 74.07390625 -171.03125 73.4603125 -170.5 72.828125 C-169.0625 71.4375 -169.0625 71.4375 -167.0625 71.4375 C-167.0625 70.7775 -167.0625 70.1175 -167.0625 69.4375 C-162.76017442 64.67005814 -162.76017442 64.67005814 -159.0625 63.4375 C-159.0625 62.7775 -159.0625 62.1175 -159.0625 61.4375 C-157.06965862 60.0934907 -155.06830329 58.76208708 -153.0625 57.4375 C-152.155 56.53 -151.2475 55.6225 -150.3125 54.6875 C-149.57 53.945 -148.8275 53.2025 -148.0625 52.4375 C-147.4025 52.4375 -146.7425 52.4375 -146.0625 52.4375 C-145.7325 51.4475 -145.4025 50.4575 -145.0625 49.4375 C-142.48177097 47.11484388 -141.61073932 46.4375 -138.0625 46.4375 C-137.7325 45.4475 -137.4025 44.4575 -137.0625 43.4375 C-135 42.75 -135 42.75 -133.0625 42.4375 C-133.0625 41.7775 -133.0625 41.1175 -133.0625 40.4375 C-130.15701118 38.39580515 -128.66107954 37.4375 -125.0625 37.4375 C-125.0625 36.7775 -125.0625 36.1175 -125.0625 35.4375 C-101.66579611 22.44956595 -77.44392552 11.98979753 -51.375 5.6875 C-50.60559082 5.50098877 -49.83618164 5.31447754 -49.04345703 5.12231445 C-46.3911574 4.51270671 -43.73173121 3.96841704 -41.0625 3.4375 C-39.795271 3.17638428 -38.52804199 2.91526855 -37.22241211 2.64624023 C-24.8096226 0.23875215 -12.61642486 -0.07862434 0 0 Z " fill="#FCFCFC" transform="translate(235.0625,-0.43750000000000006)"/>
<path d="M0 0 C8.61405627 -0.34780846 16.3683588 0.54189755 24.75 2.5 C25.92030762 2.76917236 27.09061523 3.03834473 28.29638672 3.31567383 C67.82562879 12.71380582 104.17830986 30.22015531 134 58 C135.39144666 59.21338219 136.78708639 60.42197803 138.1875 61.625 C154.37366756 75.76351985 167.9811225 93.47837265 178.81445312 111.97705078 C179.61166889 113.33737405 180.41784114 114.69248395 181.23242188 116.04248047 C196.01841504 140.59161186 204.51536256 167.79273487 209.609375 195.85107422 C209.95610574 197.75852668 210.32052899 199.66274416 210.6875 201.56640625 C211.82884655 207.77247811 212.25117061 213.69282697 212 220 C211.67 220 211.34 220 211 220 C210.84442627 219.04448242 210.68885254 218.08896484 210.52856445 217.10449219 C203.24311852 172.56929462 191.87899512 134.11320114 165.45849609 96.81665039 C164.78383301 95.86395264 164.10916992 94.91125488 163.4140625 93.9296875 C162.50068115 92.64940674 162.50068115 92.64940674 161.56884766 91.34326172 C160.18591811 89.27769095 159.04632065 87.2504662 158 85 C157.34 85 156.68 85 156 85 C154.84375 83.63671875 154.84375 83.63671875 153.5 81.6875 C145.17799521 70.23966902 135.06537396 61.25342672 123.90625 52.69921875 C123.2771875 52.13847656 122.648125 51.57773437 122 51 C122 50.34 122 49.68 122 49 C120.02 48.505 120.02 48.505 118 48 C118 47.34 118 46.68 118 46 C117.26007813 45.73058594 116.52015625 45.46117187 115.7578125 45.18359375 C113.0983954 44.04222919 111.17513103 42.79820773 108.875 41.0625 C77.5593862 18.78023634 38.22134532 4.60461468 0 1 C0 0.67 0 0.34 0 0 Z " fill="#252223" transform="translate(262,2)"/>
<path d="M0 0 C2.02683928 5.84832199 -0.2713164 12.17884353 -1.4375 18.0625 C-1.57248901 18.75061768 -1.70747803 19.43873535 -1.84655762 20.14770508 C-9.66250458 59.63135891 -24.79484963 96.4944636 -50.87109375 127.46875 C-53.0531936 130.0632467 -55.15387152 132.71076193 -57.25 135.375 C-59.98926794 138.80857744 -62.80399318 141.9767503 -66 145 C-67.3303125 146.3921875 -67.3303125 146.3921875 -68.6875 147.8125 C-71 150 -71 150 -73 150 C-73.33 150.99 -73.66 151.98 -74 153 C-76.046875 154.91015625 -76.046875 154.91015625 -78.75 157.0625 C-79.7503125 157.85914063 -80.750625 158.65578125 -81.78125 159.4765625 C-82.8541236 160.31776327 -83.92704047 161.15890884 -85 162 C-86.0209375 162.81210937 -87.041875 163.62421875 -88.09375 164.4609375 C-108.6622608 180.68724279 -131.05249606 193.68416535 -156 202 C-157.22520264 205.00847418 -157.22520264 205.00847418 -158 208 C-158.66 207.67 -159.32 207.34 -160 207 C-159.71280888 204.01321231 -159.56449186 202.48383244 -158 200 C-155.39970209 198.62471109 -152.81623391 197.81893577 -150.00390625 196.9609375 C-147.11793539 196.03772706 -144.61781698 194.90175056 -141.9375 193.5 C-138.69515339 191.81745736 -135.47684769 190.36038296 -132.0625 189.0625 C-109.6139738 180.24343614 -87.68296409 163.14779916 -71 145.9375 C-69 144 -69 144 -67 144 C-67 143.34 -67 142.68 -67 142 C-66.34 142 -65.68 142 -65 142 C-64.74089844 141.41863281 -64.48179687 140.83726562 -64.21484375 140.23828125 C-62.90713964 137.82891002 -61.44740474 136.17429148 -59.5625 134.1875 C-55.7632644 130.0111344 -52.38758048 125.61675716 -49.0625 121.0625 C-48.3355896 120.06802856 -48.3355896 120.06802856 -47.59399414 119.0534668 C-45.10061172 115.64943117 -45.10061172 115.64943117 -43 112 C-42.34 112 -41.68 112 -41 112 C-40.66548828 111.02160156 -40.66548828 111.02160156 -40.32421875 110.0234375 C-38.54470594 105.96047905 -36.18258597 102.36577641 -33.8125 98.625 C-28.85559006 90.65605071 -24.71782097 82.60606705 -21 74 C-20.36191406 72.60201172 -20.36191406 72.60201172 -19.7109375 71.17578125 C-10.60472572 50.58399268 -4.93717035 27.89538116 -2.45703125 5.546875 C-2 3 -2 3 0 0 Z " fill="#201B1D" transform="translate(473,258)"/>
<path d="M0 0 C8.61405627 -0.34780846 16.3683588 0.54189755 24.75 2.5 C25.92030762 2.76917236 27.09061523 3.03834473 28.29638672 3.31567383 C66.47924263 12.39370065 102.91923224 29.06027499 131.828125 55.98046875 C133.92069096 57.926254 136.07071348 59.77752214 138.25 61.625 C141.90373372 64.79602499 144.94256352 68.25464032 148 72 C145.03933857 70.6615301 142.90604917 69.17237185 140.57421875 66.91796875 C139.94193359 66.31533203 139.30964844 65.71269531 138.65820312 65.09179688 C138.00787109 64.46337891 137.35753906 63.83496094 136.6875 63.1875 C132.95150357 59.57968104 129.31114883 56.11931458 125.01953125 53.17578125 C124.02308594 52.45777344 123.02664063 51.73976562 122 51 C122 50.34 122 49.68 122 49 C120.02 48.505 120.02 48.505 118 48 C118 47.34 118 46.68 118 46 C117.26007813 45.73058594 116.52015625 45.46117187 115.7578125 45.18359375 C113.0983954 44.04222919 111.17513103 42.79820773 108.875 41.0625 C77.5593862 18.78023634 38.22134532 4.60461468 0 1 C0 0.67 0 0.34 0 0 Z " fill="#2E2C2D" transform="translate(262,2)"/>
<path d="M0 0 C0.99 0.33 1.98 0.66 3 1 C2.0821875 1.78503906 1.164375 2.57007813 0.21875 3.37890625 C-2.95418548 6.09399043 -6.12315709 8.81366307 -9.29101562 11.53466797 C-10.64399611 12.69475209 -12.00097844 13.85016878 -13.359375 15.00390625 C-21.55542632 22.03151223 -29.03161517 29.7632796 -36 38 C-37.10408203 39.25296875 -37.10408203 39.25296875 -38.23046875 40.53125 C-59.40354756 65.03681657 -72.45714704 93.67444991 -83 124 C-83.33 124 -83.66 124 -84 124 C-83.46631052 117.07845792 -81.52637063 111.15535513 -79.0625 104.6875 C-78.66281006 103.63369141 -78.26312012 102.57988281 -77.85131836 101.49414062 C-70.19763007 81.821294 -59.39918277 63.37741679 -46.265625 46.86328125 C-43.79520073 43.7411761 -41.45911923 40.53974659 -39.15625 37.29296875 C-38.58390625 36.65294922 -38.58390625 36.65294922 -38 36 C-37.34 36 -36.68 36 -36 36 C-35.731875 35.41734375 -35.46375 34.8346875 -35.1875 34.234375 C-33.98519009 31.97213399 -32.66174087 30.19423682 -31 28.25 C-30.484375 27.63640625 -29.96875 27.0228125 -29.4375 26.390625 C-28 25 -28 25 -26 25 C-26 24.34 -26 23.68 -26 23 C-21.69767442 18.23255814 -21.69767442 18.23255814 -18 17 C-18 16.34 -18 15.68 -18 15 C-16.00715862 13.6559907 -14.00580329 12.32458708 -12 11 C-11.0925 10.0925 -10.185 9.185 -9.25 8.25 C-8.5075 7.5075 -7.765 6.765 -7 6 C-6.34 6 -5.68 6 -5 6 C-4.67 5.01 -4.34 4.02 -4 3 C-2.125 1.25 -2.125 1.25 0 0 Z " fill="#312D2E" transform="translate(94,46)"/>
<path d="M0 0 C0.66 0 1.32 0 2 0 C2.14695313 1.22589844 2.29390625 2.45179688 2.4453125 3.71484375 C5.68066249 29.15691489 11.68137735 54.86386224 23 78 C23.63218357 79.40217282 24.26075024 80.8059791 24.88671875 82.2109375 C32.02317989 98.03812476 40.74852451 112.74223731 52 126 C53.0091714 127.32640524 54.0120521 128.65771213 55 130 C54.67 130.66 54.34 131.32 54 132 C45.32056592 122.55550942 38.48233416 112.0392749 32 101 C31.32445068 99.86353027 31.32445068 99.86353027 30.63525391 98.70410156 C13.86421529 70.23429562 0 33.57311865 0 0 Z " fill="#353435" transform="translate(0,256)"/>
<path d="M0 0 C3.84036789 1.61844075 6.67089329 4.20745331 9.75 6.9375 C16.52130514 12.80167264 23.72312489 17.86462458 31.18847656 22.80126953 C32.76569174 23.84495235 34.33297195 24.90361845 35.8984375 25.96484375 C54.28777386 38.14156648 75.55893217 45.99313011 96 54 C92.10033492 55.49987118 89.81323001 54.48364581 86 53 C85.22156738 52.69868164 84.44313477 52.39736328 83.64111328 52.08691406 C54.72150244 40.73074117 29.28497787 26.26048725 5.52392578 6.24902344 C4.24340378 5.19949595 2.90630515 4.21953935 1.55859375 3.2578125 C1.04425781 2.84273438 0.52992187 2.42765625 0 2 C0 1.34 0 0.68 0 0 Z " fill="#282425" transform="translate(75,409)"/>
<path d="M0 0 C0.99 0.33 1.98 0.66 3 1 C-12.72807099 13.8103193 -30.32745173 24.89894858 -49.375 32.05859375 C-50.28781738 32.40446533 -51.20063477 32.75033691 -52.14111328 33.10668945 C-53.92812136 33.77230927 -55.72333754 34.41639637 -57.52685547 35.03588867 C-62.64490534 36.82435231 -62.64490534 36.82435231 -65.5703125 41.2421875 C-65.71210938 42.15226562 -65.85390625 43.06234375 -66 44 C-66.66 43.67 -67.32 43.34 -68 43 C-67.71280888 40.01321231 -67.56449186 38.48383244 -66 36 C-63.39970209 34.62471109 -60.81623391 33.81893577 -58.00390625 32.9609375 C-55.11793539 32.03772706 -52.61781698 30.90175056 -49.9375 29.5 C-46.69515339 27.81745736 -43.47684769 26.36038296 -40.0625 25.0625 C-26.17508682 19.60673053 -13.03309554 10.78228939 -1.734375 1.08203125 C-0.87585938 0.54642578 -0.87585938 0.54642578 0 0 Z " fill="#393336" transform="translate(381,422)"/>
<path d="M0 0 C0.66 0 1.32 0 2 0 C3.68082733 4.05678404 5.34214688 8.12127917 7 12.1875 C7.71542969 13.91323242 7.71542969 13.91323242 8.4453125 15.67382812 C8.89648438 16.78564453 9.34765625 17.89746094 9.8125 19.04296875 C10.23144531 20.06414795 10.65039062 21.08532715 11.08203125 22.13745117 C11.98503954 24.95334805 12.18839673 27.06807585 12 30 C10.00621238 27.00931857 8.92800096 24.36187883 7.6875 21 C5.66462449 15.61770624 3.41476654 10.42016199 0.91796875 5.2421875 C0 3 0 3 0 0 Z " fill="#181516" transform="translate(450,134)"/>
<path d="M0 0 C0.99 0.33 1.98 0.66 3 1 C1.62328125 2.17755859 1.62328125 2.17755859 0.21875 3.37890625 C-0.37260742 3.88518555 -0.96396484 4.39146484 -1.57324219 4.91308594 C-2.8598936 6.01453259 -4.14700472 7.11544245 -5.43457031 8.21582031 C-9.525025 11.71688427 -13.57042344 15.25995184 -17.546875 18.890625 C-19 20 -19 20 -21 20 C-20.505 18.515 -20.505 18.515 -20 17 C-19.34 17 -18.68 17 -18 17 C-18 16.34 -18 15.68 -18 15 C-16.00715862 13.6559907 -14.00580329 12.32458708 -12 11 C-11.0925 10.0925 -10.185 9.185 -9.25 8.25 C-8.13625 7.13625 -8.13625 7.13625 -7 6 C-6.34 6 -5.68 6 -5 6 C-4.67 5.01 -4.34 4.02 -4 3 C-2.125 1.25 -2.125 1.25 0 0 Z " fill="#332C2E" transform="translate(94,46)"/>
<path d="M0 0 C1.29101314 3.68860897 0.73724424 6.504981 0.00390625 10.296875 C-0.22490234 11.50214844 -0.45371094 12.70742188 -0.68945312 13.94921875 C-0.93630859 15.20347656 -1.18316406 16.45773437 -1.4375 17.75 C-1.68048828 19.01972656 -1.92347656 20.28945313 -2.17382812 21.59765625 C-2.77502368 24.73330363 -3.38402341 27.86722859 -4 31 C-4.33 31 -4.66 31 -5 31 C-5.14298475 24.53968922 -4.67002775 18.49564991 -3.625 12.125 C-3.49867188 11.28453125 -3.37234375 10.4440625 -3.2421875 9.578125 C-3.11328125 8.77117187 -2.984375 7.96421875 -2.8515625 7.1328125 C-2.73635254 6.40980957 -2.62114258 5.68680664 -2.50244141 4.94189453 C-2 3 -2 3 0 0 Z " fill="#2A2A2A" transform="translate(473,258)"/>
<path d="M0 0 C4.34144657 3.93443596 7.59745527 8.43592882 10.99609375 13.1953125 C13.60278611 16.84366554 16.29510331 20.42420854 19 24 C18.67 24.66 18.34 25.32 18 26 C12.79193891 20.33286969 8.30580256 14.37344042 4 8 C3.56171875 7.37351562 3.1234375 6.74703125 2.671875 6.1015625 C0 2.24427817 0 2.24427817 0 0 Z " fill="#242122" transform="translate(36,362)"/>
<path d="M0 0 C4.54380091 3.69265665 8.32238955 7.45137655 12 12 C12.86625 12.86625 13.7325 13.7325 14.625 14.625 C16.65550064 16.65550064 18.35189077 18.65795003 20 21 C17.13302508 19.71480435 15.02392288 18.42870746 13 16 C13 15.34 13 14.68 13 14 C12.360625 13.731875 11.72125 13.46375 11.0625 13.1875 C9 12 9 12 8 9 C7.01 8.67 6.02 8.34 5 8 C0 2.53488372 0 2.53488372 0 0 Z " fill="#2F2A2D" transform="translate(55,388)"/>
<path d="M0 0 C0.66 0.66 1.32 1.32 2 2 C1.43152344 2.556875 0.86304687 3.11375 0.27734375 3.6875 C-4.21655954 8.12888689 -8.52722246 12.62817996 -12.58984375 17.46875 C-14 19 -14 19 -16 20 C-16 19.01 -16 18.02 -16 17 C-15.34 17 -14.68 17 -14 17 C-13.731875 16.41734375 -13.46375 15.8346875 -13.1875 15.234375 C-11.98519009 12.97213399 -10.66174087 11.19423682 -9 9.25 C-8.484375 8.63640625 -7.96875 8.0228125 -7.4375 7.390625 C-6 6 -6 6 -4 6 C-4 5.34 -4 4.68 -4 4 C-2.70766393 2.62689293 -1.37562854 1.28965176 0 0 Z " fill="#1C1819" transform="translate(72,65)"/>
<path d="M0 0 C0.66 0 1.32 0 2 0 C-0.23313726 7.44379088 -3.40272079 14.11976695 -7 21 C-7.66 21 -8.32 21 -9 21 C-6.82666636 13.68969594 -3.44219197 6.7887675 0 0 Z " fill="#221A1F" transform="translate(454,328)"/>
<path d="M0 0 C4.15635893 1.71987266 7.26125704 4.59426668 10.625 7.5 C11.21023437 7.99886719 11.79546875 8.49773437 12.3984375 9.01171875 C14.66496018 10.9507393 16.89013044 12.89013044 19 15 C14.90492361 14.43982446 12.59115357 12.24908366 9.5 9.625 C5.66416552 6.36967508 5.66416552 6.36967508 1.65625 3.3359375 C1.1096875 2.89507812 0.563125 2.45421875 0 2 C0 1.34 0 0.68 0 0 Z " fill="#1E191A" transform="translate(75,409)"/>
<path d="M0 0 C0.66 0 1.32 0 2 0 C3.32421875 1.42578125 3.32421875 1.42578125 4.6875 3.3125 C5.14511719 3.92738281 5.60273438 4.54226562 6.07421875 5.17578125 C6.53248047 6.07876953 6.53248047 6.07876953 7 7 C6.67 7.99 6.34 8.98 6 10 C4.99421411 8.71283353 3.99553202 7.42011342 3 6.125 C2.443125 5.40570313 1.88625 4.68640625 1.3125 3.9453125 C0 2 0 2 0 0 Z " fill="#191516" transform="translate(424,92)"/>
<path d="M0 0 C7.48291572 6.15034169 7.48291572 6.15034169 10 10 C7.00779732 8.63629701 4.70973471 7.05091917 2.25 4.875 C1.63640625 4.33617188 1.0228125 3.79734375 0.390625 3.2421875 C-0.06828125 2.83226563 -0.5271875 2.42234375 -1 2 C-0.67 1.34 -0.34 0.68 0 0 Z " fill="#373033" transform="translate(400,64)"/>
<path d="M0 0 C2.72426311 2.35277269 3.8141763 4.62496331 5 8 C3.68 8 2.36 8 1 8 C0.67 5.36 0.34 2.72 0 0 Z " fill="#AFA7B1" transform="translate(178,458)"/>
<path d="M0 0 C0.66 0.33 1.32 0.66 2 1 C0.02 2.98 -1.96 4.96 -4 7 C-4.99 6.67 -5.98 6.34 -7 6 C-4.69 4.02 -2.38 2.04 0 0 Z " fill="#1A1616" transform="translate(390,415)"/>
<path d="" fill="#FFFFFF" transform="translate(0,0)"/>
<path d="" fill="#FFFFFF" transform="translate(0,0)"/>
<path d="" fill="#FFFFFF" transform="translate(0,0)"/>
<path d="" fill="#FFFFFF" transform="translate(0,0)"/>
<path d="" fill="#FFFFFF" transform="translate(0,0)"/>
<path d="" fill="#FFFFFF" transform="translate(0,0)"/>
<path d="" fill="#FFFFFF" transform="translate(0,0)"/>
<path d="" fill="#FFFFFF" transform="translate(0,0)"/>
<path d="" fill="#FFFFFF" transform="translate(0,0)"/>
<path d="" fill="#FFFFFF" transform="translate(0,0)"/>
<path d="" fill="#FFFFFF" transform="translate(0,0)"/>
<path d="" fill="#FFFFFF" transform="translate(0,0)"/>
<path d="" fill="#FFFFFF" transform="translate(0,0)"/>
<path d="" fill="#FFFFFF" transform="translate(0,0)"/>
<path d="" fill="#FFFFFF" transform="translate(0,0)"/>
<path d="" fill="#FFFFFF" transform="translate(0,0)"/>
<path d="" fill="#FFFFFF" transform="translate(0,0)"/>
<path d="" fill="#FFFFFF" transform="translate(0,0)"/>
</svg>
