<?xml version="1.0" encoding="UTF-8"?>
<svg version="1.1" xmlns="http://www.w3.org/2000/svg" width="601" height="596">
<path d="M0 0 C1.45317393 -0.00043686 2.90634778 -0.00131388 4.35952121 -0.00258917 C8.32522942 -0.00481158 12.29091031 -0.00084391 16.25661504 0.0041889 C20.54344196 0.00852577 24.83026745 0.00704468 29.11709595 0.00628662 C36.53521779 0.00576343 43.9533308 0.00888879 51.37145042 0.01452446 C62.0966764 0.02266727 72.82189813 0.02525753 83.54712687 0.02651245 C100.95002486 0.0286986 118.35291815 0.03534684 135.7558136 0.04481506 C152.65652951 0.05400048 169.55724414 0.06106432 186.45796204 0.06532288 C188.03772917 0.06572487 188.03772917 0.06572487 189.64941078 0.06613499 C197.88651416 0.06821453 206.12361757 0.07017141 214.36072099 0.07208955 C254.70376724 0.08151544 295.04680172 0.1016356 335.3898468 0.12025452 C335.3898468 51.60025452 335.3898468 103.08025452 335.3898468 156.12025452 C304.6998468 159.09025452 304.6998468 159.09025452 273.3898468 162.12025452 C170.12319783 168.14664384 170.12319783 168.14664384 79.62031555 209.47572327 C76.35071488 213.84557052 74.77314774 217.49091735 75.05781555 223.05775452 C76.43280298 231.59885287 82.83159842 237.94838501 89.3898468 243.12025452 C93.86636051 246.28135229 98.44530268 249.28248798 103.07710266 252.21058655 C113.42909829 258.81768151 113.42909829 258.81768151 115.3898468 265.55775452 C115.3898468 270.16259186 114.40727273 271.66125406 111.3898468 275.12025452 C69.40008198 316.31988936 -34.81831871 321.75696286 -90.2585907 331.94837952 C-91.58840564 332.19313019 -91.58840564 332.19313019 -92.94508553 332.44282532 C-101.69717206 334.05293697 -110.45045111 335.65521544 -119.21114731 337.21787167 C-136.6060876 340.32521104 -153.88377152 343.71310775 -171.0789032 347.79603577 C-171.85667177 347.98020302 -172.63444035 348.16437027 -173.43577766 348.35411835 C-188.92737015 352.04252941 -204.18162943 356.45021602 -219.3445282 361.31947327 C-228.04551669 363.45308887 -238.25923917 363.33546117 -246.4304657 359.45619202 C-254.89151701 354.27038637 -261.91723809 346.79978561 -264.6101532 337.12025452 C-265.3777032 330.73714729 -265.14915496 324.25177509 -265.10624695 317.83509827 C-265.10640232 315.93247421 -265.10789752 314.02984984 -265.11065674 312.12722778 C-265.11203849 308.13867694 -265.09953771 304.15048654 -265.07670593 300.16200256 C-265.04860839 295.12247241 -265.05126489 290.08354752 -265.0633955 285.04397392 C-265.14144804 244.63785657 -265.14144804 244.63785657 -261.6101532 225.12025452 C-261.43662827 224.10715714 -261.43662827 224.10715714 -261.25959778 223.07359314 C-260.59461799 219.22631144 -259.80445707 215.42320722 -258.9226532 211.62025452 C-258.66846619 210.50698792 -258.41427917 209.39372131 -258.15238953 208.24671936 C-248.7487128 168.5097819 -230.40685087 131.73144595 -204.6101532 100.12025452 C-204.18121765 99.5898053 -203.7522821 99.05935608 -203.31034851 98.51283264 C-191.57287365 84.08109309 -178.41995701 70.41023949 -163.6101532 59.12025452 C-162.63433289 58.33908264 -161.65851257 57.55791077 -160.65312195 56.75306702 C-115.64475486 20.90395187 -57.56750014 -0.12983837 0 0 Z " fill="#6CD0F6" transform="translate(265.6101531982422,0.8797454833984375)"/>
<path d="M0 0 C0.07042218 21.24646107 0.1231495 42.49290258 0.15543652 63.73945713 C0.17083368 73.60702504 0.19178448 83.47451998 0.22631836 93.34204102 C0.25644177 101.95352592 0.27562678 110.56495792 0.28226548 119.17649406 C0.28613935 123.72629128 0.29508961 128.27593729 0.31719017 132.8256855 C0.40558845 151.75987694 0.36073051 170.29128495 -3 189 C-3.11956653 189.68564246 -3.23913305 190.37128492 -3.36232281 191.07770443 C-4.02150304 194.82706077 -4.77582595 198.53905204 -5.625 202.25 C-6.00458862 203.91832886 -6.00458862 203.91832886 -6.3918457 205.62036133 C-15.86611883 245.6506408 -34.22732469 282.07846444 -60 314 C-60.43328613 314.5377002 -60.86657227 315.07540039 -61.31298828 315.62939453 C-73.04739672 330.05178635 -86.19776685 343.71578639 -101 355 C-101.97582031 355.78117187 -102.95164062 356.56234375 -103.95703125 357.3671875 C-131.72683402 379.49095593 -164.07077972 394.90734869 -198 405 C-198.75361816 405.22445801 -199.50723633 405.44891602 -200.28369141 405.68017578 C-220.73941232 411.58356545 -238.58193829 409.43542069 -257.9375 400.5 C-259.10627686 399.96882568 -260.27505371 399.43765137 -261.47924805 398.89038086 C-290.87355751 385.43122835 -319.44037092 370.28255713 -344 349 C-345.45986328 347.75863281 -345.45986328 347.75863281 -346.94921875 346.4921875 C-362.4749595 333.00432479 -377.04286282 314.49741928 -379.27050781 293.44335938 C-379.98870381 282.4417202 -379.41080498 272.23691498 -375 262 C-374.57589844 260.98808594 -374.15179688 259.97617187 -373.71484375 258.93359375 C-370.2208976 251.31309281 -365.63291997 245.17136085 -360 239 C-359.505 238.45585449 -359.01 237.91170898 -358.5 237.35107422 C-325.45117353 201.47730211 -275.79969969 185.06182451 -229.39550781 174.95996094 C-149.05027792 162.26538567 -149.05027792 162.26538567 -84.171875 120.4375 C-80.4521421 113.89731029 -79.77612855 107.79666387 -81.62890625 100.53515625 C-85.01494552 90.9236636 -91.43619703 83.35055092 -98.6875 76.375 C-105.00020779 70.21113553 -109.62136129 64.2529968 -110.125 55.1875 C-109.59900437 45.98257653 -103.31709708 39.91343731 -96.79296875 34.05859375 C-92.99332624 30.85054242 -88.96726326 28.47113819 -84.5625 26.1875 C-83.74249512 25.76227051 -82.92249023 25.33704102 -82.07763672 24.89892578 C-58.87034653 13.20203518 -26.2768076 0 0 0 Z " fill="#2754A2" transform="translate(601,187)"/>
<path d="M0 0 C0 15.18 0 30.36 0 46 C-10.395 50.455 -10.395 50.455 -21 55 C-38.42529122 64.07402451 -38.42529122 64.07402451 -49 80 C-49.75176458 86.93841738 -49.05607133 92.26293653 -45 98 C-41.06718456 102.80593084 -36.82409731 107.23904698 -32.3125 111.5 C-25.07327545 118.65524283 -20.90918453 127.8377493 -19.4375 137.8125 C-19.84024275 145.89957449 -24.7475191 153.2539957 -30.4375 158.6875 C-44.05474785 169.85444661 -59.63450023 175.92162112 -76 182 C-76.76586426 182.2897168 -77.53172852 182.57943359 -78.32080078 182.87792969 C-108.08671752 194.02161097 -140.55481278 200.22127171 -171.68359375 206.328125 C-219.87374425 215.78546142 -277.1669629 236.27819207 -307 278 C-316.82589313 292.69505229 -320.95860977 307.7222528 -318.3125 325.5 C-312.23565326 354.53382331 -288.63006883 376.46451226 -264.92626953 392.39355469 C-261.89622417 394.37346807 -258.84141479 396.29936213 -255.7578125 398.1953125 C-253.47838037 399.68695222 -251.85815017 401.05847568 -250 403 C-257.98728313 400.59780958 -265.33111783 397.15633646 -272.8125 393.5 C-273.4513916 393.18909424 -274.0902832 392.87818848 -274.74853516 392.55786133 C-298.99537406 380.74274125 -322.35679503 367.52440215 -343 350 C-343.82636963 349.30124756 -343.82636963 349.30124756 -344.66943359 348.58837891 C-361.04503593 334.56502063 -376.92165659 315.64297132 -379.27050781 293.44335938 C-379.98870381 282.4417202 -379.41080498 272.23691498 -375 262 C-374.57589844 260.98808594 -374.15179688 259.97617187 -373.71484375 258.93359375 C-370.2208976 251.31309281 -365.63291997 245.17136085 -360 239 C-359.505 238.45585449 -359.01 237.91170898 -358.5 237.35107422 C-325.45117353 201.47730211 -275.79969969 185.06182451 -229.39550781 174.95996094 C-149.05027792 162.26538567 -149.05027792 162.26538567 -84.171875 120.4375 C-80.4521421 113.89731029 -79.77612855 107.79666387 -81.62890625 100.53515625 C-85.01494552 90.9236636 -91.43619703 83.35055092 -98.6875 76.375 C-105.00020779 70.21113553 -109.62136129 64.2529968 -110.125 55.1875 C-109.59900437 45.98257653 -103.31709708 39.91343731 -96.79296875 34.05859375 C-92.99332624 30.85054242 -88.96726326 28.47113819 -84.5625 26.1875 C-83.74249512 25.76227051 -82.92249023 25.33704102 -82.07763672 24.89892578 C-58.87034653 13.20203518 -26.2768076 0 0 0 Z " fill="#22427A" transform="translate(601,187)"/>
<path d="M0 0 C2.97 1.65 5.94 3.3 9 5 C8.01 5.495 8.01 5.495 7 6 C4.8359375 5.22265625 4.8359375 5.22265625 2.375 4.0625 C1.55773437 3.68222656 0.74046875 3.30195312 -0.1015625 2.91015625 C-0.72804688 2.60980469 -1.35453125 2.30945313 -2 2 C-1.34 1.34 -0.68 0.68 0 0 Z " fill="#234786" transform="translate(342,584)"/>
</svg>
